<?xml version="1.0" encoding="utf-8"?>
<!-- Generator: Adobe Illustrator 23.0.4, SVG Export Plug-In . SVG Version: 6.00 Build 0)  -->
<svg version="1.1" id="Layer_1" xmlns="http://www.w3.org/2000/svg" xmlns:xlink="http://www.w3.org/1999/xlink" x="0px" y="0px"
	 viewBox="0 0 100 100" style="enable-background:new 0 0 100 100;" xml:space="preserve">
<g>
	<path d="M75.7,14.2c0,1.1,0.9,2,2,2s2-0.9,2-2c0-5.1-4.2-9.3-9.3-9.3s-9.3,4.2-9.3,9.3c0,1.1,0.9,2,2,2s2-0.9,2-2
		c0-2.9,2.4-5.3,5.3-5.3S75.7,11.3,75.7,14.2z"/>
	<path d="M29.6,4.9c-5.1,0-9.3,4.2-9.3,9.3c0,1.1,0.9,2,2,2s2-0.9,2-2c0-2.9,2.4-5.3,5.3-5.3s5.3,2.4,5.3,5.3c0,1.1,0.9,2,2,2
		s2-0.9,2-2C38.8,9.1,34.7,4.9,29.6,4.9z"/>
	<path d="M79.3,47.3c-1.1,0-2,0.9-2,2c0,7-5.7,12.6-12.6,12.6c-1.6,0-3.1-0.3-4.5-0.9c-0.3-0.1-0.6-0.2-0.9-0.4
		c-3.6-1.7-6.2-5-7-8.9c-0.1-0.6-0.2-1.3-0.2-1.9c0-0.1,0-0.3-0.1-0.4c0-0.1,0-0.1,0-0.2v-7.1h0.4c0,0,3-2.6,5.7-5
		c3-2.8,2.8-7.2-0.9-9.4c-0.9-0.6-2-1-3.1-1h-8.2c-1.1,0-2.1,0.4-3.1,1c-3.6,2.3-3.9,6.7-0.9,9.4c2.7,2.4,5.7,5,5.7,5H48v7.1
		c0,0.1,0,0.1,0,0.2c0,0.1-0.1,0.3-0.1,0.4c-0.2,5-3.4,9.4-8.1,11.2c-0.4,0.1-0.7,0.3-1.1,0.4h-0.2v0c-1,0.3-2.1,0.4-3.2,0.4
		c-7,0-12.7-5.7-12.7-12.7c0-1.1-0.9-2-2-2s-2,0.9-2,2c0,9.2,7.5,16.7,16.7,16.7c1.1,0,2.2-0.1,3.2-0.3v17.9
		c0,6.3,5.1,11.4,11.4,11.4c6.3,0,11.5-5.1,11.5-11.4V65.6c1.1,0.2,2.1,0.3,3.2,0.3c9.2,0,16.6-7.5,16.6-16.6
		C81.3,48.2,80.4,47.3,79.3,47.3z M50,90.9c-4.1,0-7.4-3.3-7.4-7.4V64.3c2.1-1,4-2.5,5.5-4.2v4.3c0,1.1,0.9,2,2,2s2-0.9,2-2V60
		c1.5,1.8,3.3,3.2,5.5,4.2v19.2C57.5,87.6,54.1,90.9,50,90.9z"/>
	<path d="M50,68.8c-1.1,0-2,0.9-2,2v9.5c0,1.1,0.9,2,2,2s2-0.9,2-2v-9.5C52,69.7,51.1,68.8,50,68.8z"/>
	<circle cx="59.2" cy="50.2" r="2.4"/>
	<circle cx="70.2" cy="50.2" r="2.4"/>
	<circle cx="64.7" cy="56.6" r="2.4"/>
	<circle cx="29.6" cy="50.2" r="2.4"/>
	<circle cx="40.6" cy="50.2" r="2.4"/>
	<circle cx="35.1" cy="56.6" r="2.4"/>
</g>
</svg>
